<?xml version="1.0" standalone="no"?> 
<!DOCTYPE svg PUBLIC "-//W3C//DTD SVG 20010904//EN"
 "http://www.w3.org/TR/2001/REC-SVG-20010904/DTD/svg10.dtd">
<svg version="1.0" xmlns="http://www.w3.org/2000/svg"
 width="1500.000000pt" height="1500.000000pt" viewBox="0 0 1500.000000 1500.000000"
 preserveAspectRatio="xMidYMid meet">

<g transform="translate(0.000000,1500.000000) scale(0.100000,-0.100000)"
fill="#000000" stroke="none">
<path d="M7200 12105 c0 -20 5 -25 24 -25 27 0 23 27 40 -352 l5 -108 -30 0
c-24 0 -29 -4 -29 -25 0 -25 1 -25 85 -25 84 0 85 0 85 25 0 20 -5 25 -25 25
-14 0 -27 6 -30 13 -2 6 -6 110 -10 230 l-6 217 25 0 c21 0 26 5 26 25 0 25
-1 25 -80 25 -79 0 -80 0 -80 -25z"/>
<path d="M7560 12105 c0 -14 -5 -136 -11 -271 -6 -135 -7 -249 -4 -253 4 -3
74 -8 156 -11 147 -5 149 -5 149 16 0 18 -8 22 -52 28 -29 3 -86 6 -125 6
l-73 0 0 58 c0 31 3 80 6 109 l7 52 96 -2 c93 -2 96 -1 99 21 3 22 1 22 -97
22 l-101 0 0 69 c0 38 3 83 6 101 l7 32 123 -4 c121 -3 124 -2 124 18 0 19 -8
22 -61 28 -34 3 -104 6 -155 6 -94 0 -94 0 -94 -25z"/>
<path d="M6768 12086 c-53 -6 -100 -15 -104 -19 -7 -7 37 -443 52 -519 4 -22
11 -28 31 -28 l26 0 -9 83 c-4 45 -8 102 -8 127 l-1 45 52 5 52 5 83 -112 c77
-105 85 -113 117 -113 31 0 33 1 19 18 -8 9 -47 61 -88 116 l-74 98 25 19 c13
10 27 19 31 19 3 0 16 15 27 34 42 67 14 179 -53 209 -49 23 -75 25 -178 13z
m165 -76 c41 -46 34 -128 -14 -158 -20 -13 -168 -37 -175 -29 -9 9 -27 197
-20 205 10 10 105 21 146 16 23 -2 44 -13 63 -34z"/>
<path d="M8065 12088 c-2 -7 -18 -116 -35 -243 -17 -126 -33 -245 -37 -262 -5
-31 -4 -33 26 -33 17 0 31 3 31 8 0 18 61 436 64 439 1 2 52 -109 112 -247
108 -249 109 -250 139 -250 l31 0 33 238 c18 130 35 254 38 275 5 36 5 37 -24
37 l-30 0 -28 -207 c-15 -115 -31 -216 -34 -226 -5 -12 -41 61 -115 232 -106
245 -109 251 -138 251 -16 0 -30 -6 -33 -12z"/>
<path d="M6345 12017 c-77 -16 -141 -31 -143 -32 -3 -2 107 -538 111 -542 1
-1 15 1 30 4 19 4 26 10 23 22 -2 9 -15 65 -27 124 -17 84 -19 111 -10 117 7
4 44 13 82 20 44 7 73 18 76 27 11 29 -12 34 -86 18 -40 -8 -78 -15 -85 -15
-18 0 -53 180 -36 190 7 4 51 15 99 24 47 10 94 19 104 22 17 5 24 39 10 47
-5 2 -71 -9 -148 -26z"/>
<path d="M8700 11998 c0 -2 -31 -123 -69 -270 l-69 -266 89 -22 c182 -45 285
-12 348 112 39 77 53 187 31 253 -15 47 -72 111 -120 135 -42 21 -210 67 -210
58z m128 -83 c57 -17 115 -62 138 -106 19 -37 18 -122 -2 -190 -22 -75 -84
-135 -150 -145 -43 -6 -142 8 -170 25 -7 4 7 76 44 219 61 235 52 223 140 197z"/>
<path d="M5580 11806 c-116 -42 -176 -68 -178 -78 -6 -30 19 -30 95 -3 56 21
77 25 82 16 5 -7 43 -113 86 -237 58 -163 83 -224 94 -224 44 1 42 12 -38 241
-44 123 -81 230 -83 237 -2 9 25 24 78 44 69 25 81 33 77 49 -3 10 -13 19 -22
18 -9 0 -95 -28 -191 -63z"/>
<path d="M9201 11574 c-51 -141 -89 -259 -84 -264 4 -4 68 -28 142 -54 90 -32
137 -44 143 -38 22 22 -3 38 -111 77 -61 22 -111 42 -111 45 0 3 38 111 85
240 63 174 82 236 72 242 -36 23 -43 10 -136 -248z"/>
<path d="M9680 11658 c0 -18 5 -100 11 -183 l11 -150 -46 -99 c-25 -54 -46
-102 -46 -106 0 -4 11 -12 24 -18 23 -10 25 -7 71 94 l48 104 143 105 c79 58
146 110 149 115 3 5 -5 12 -19 16 -20 5 -46 -11 -146 -86 -67 -50 -124 -90
-126 -87 -3 2 -9 71 -15 153 -8 116 -14 152 -27 162 -25 19 -32 15 -32 -20z"/>
<path d="M5113 11618 l-132 -61 13 -31 c57 -132 220 -476 226 -474 147 62 270
126 270 140 0 9 -4 19 -9 23 -5 3 -60 -18 -121 -46 -61 -28 -113 -49 -115 -47
-6 6 -85 181 -85 187 0 4 38 24 85 45 86 39 90 42 79 70 -5 12 -18 9 -82 -21
-114 -52 -103 -55 -147 42 -22 49 -34 89 -29 94 5 5 52 28 104 51 52 23 99 46
103 50 10 9 -2 40 -17 39 -6 0 -70 -28 -143 -61z"/>
<path d="M4782 11452 c-12 -12 -26 -68 -47 -190 -16 -94 -32 -172 -35 -172 -3
0 -34 52 -70 115 -36 63 -70 115 -76 115 -5 0 -18 -6 -27 -12 -15 -12 -3 -37
120 -250 75 -131 142 -238 147 -238 6 0 18 6 27 13 14 11 11 21 -33 98 -44 77
-48 90 -42 128 4 22 12 41 18 41 7 0 76 -29 154 -65 138 -64 142 -65 167 -49
14 9 24 18 23 19 -2 2 -75 35 -163 75 -88 39 -164 75 -169 80 -8 8 17 185 41
288 6 27 -10 29 -35 4z"/>
<path d="M10392 11239 c-134 -68 -241 -276 -202 -393 37 -114 168 -175 280
-130 46 18 44 15 29 48 -11 23 -14 24 -38 12 -53 -28 -89 -29 -137 -5 -63 30
-86 69 -82 139 4 64 34 130 89 200 48 60 102 90 165 90 42 0 51 -5 89 -42 31
-32 44 -54 50 -85 4 -24 10 -43 15 -43 5 0 16 -3 26 -7 15 -5 16 0 12 45 -13
139 -175 233 -296 171z"/>
<path d="M4215 11112 c-83 -39 -134 -129 -121 -214 16 -110 118 -251 211 -294
146 -68 305 32 305 193 0 37 -8 44 -38 36 -18 -4 -22 -13 -22 -45 0 -76 -47
-134 -123 -153 -94 -24 -259 145 -274 279 -13 108 100 195 201 156 21 -8 27
-6 37 11 16 31 -2 43 -74 46 -45 3 -73 -1 -102 -15z"/>
<path d="M10763 10747 c-134 -83 -243 -155 -243 -159 0 -4 9 -12 21 -18 17
-10 31 -5 85 29 36 23 68 41 71 41 15 0 184 -144 180 -154 -2 -6 -14 -42 -27
-79 -21 -66 -21 -69 -4 -82 11 -7 22 -11 25 -7 4 4 47 129 97 279 85 255 89
273 73 287 -10 9 -22 16 -27 15 -5 0 -118 -69 -251 -152z m182 -58 c-25 -73
-46 -134 -48 -136 -6 -6 -142 106 -142 117 0 10 211 149 227 150 4 0 -13 -59
-37 -131z"/>
<path d="M3745 10730 c-45 -14 -105 -69 -126 -114 -88 -193 137 -465 343 -416
62 15 131 76 154 135 21 57 15 145 -16 205 -31 61 -110 142 -167 170 -52 26
-138 35 -188 20z m163 -74 c95 -48 161 -149 162 -245 0 -93 -66 -161 -158
-161 -110 0 -241 130 -258 254 -8 56 23 126 69 155 46 29 124 28 185 -3z"/>
<path d="M11150 10425 c-193 -193 -194 -194 -175 -215 l19 -21 163 163 c90 90
163 157 163 151 0 -7 -27 -126 -60 -265 l-60 -252 23 -23 22 -23 198 198 198
198 -24 22 -24 23 -158 -165 c-87 -91 -160 -164 -163 -161 -2 2 24 121 58 265
59 250 61 262 44 281 -9 10 -20 19 -23 19 -3 0 -94 -88 -201 -195z"/>
<path d="M3323 10313 c-40 -22 -177 -174 -166 -183 32 -28 345 -310 371 -334
l32 -30 21 20 20 21 -77 71 -78 71 32 38 c83 98 86 103 89 161 5 66 -13 103
-72 148 -47 36 -125 44 -172 17z m137 -63 c17 -12 37 -34 45 -50 27 -52 19
-83 -37 -149 -28 -34 -55 -61 -59 -61 -8 0 -179 150 -179 157 0 12 88 107 110
119 32 18 82 11 120 -16z"/>
<path d="M11732 10187 c-9 -10 2 -29 45 -81 31 -38 52 -71 46 -74 -5 -4 -94
-76 -197 -161 -173 -142 -186 -155 -174 -173 7 -11 16 -20 20 -21 4 -1 90 67
193 151 102 84 191 155 198 157 7 2 35 -25 62 -60 28 -35 53 -64 56 -64 4 -1
12 6 19 14 15 18 20 11 -125 189 -60 74 -115 135 -121 136 -6 0 -16 -6 -22
-13z"/>
<path d="M7040 10005 c-10 -12 0 -47 50 -187 34 -95 66 -181 72 -190 10 -21
46 -24 54 -5 3 8 -25 97 -62 198 -73 201 -84 220 -114 184z"/>
<path d="M7883 10008 c-17 -23 -134 -358 -131 -376 2 -9 13 -18 25 -20 23 -3
20 -10 110 236 24 68 43 133 41 145 -3 25 -30 34 -45 15z"/>
<path d="M2766 9629 c-65 -94 -116 -172 -114 -173 2 -1 11 -7 20 -15 15 -11
22 -4 64 58 26 39 51 71 55 71 5 0 98 -61 208 -135 109 -74 204 -135 210 -135
6 0 15 8 20 19 13 24 13 23 -179 151 -85 57 -172 116 -192 131 l-38 27 50 70
c47 67 48 70 31 87 -18 15 -24 8 -135 -156z"/>
<path d="M11900 9604 c-118 -80 -221 -151 -227 -157 -10 -10 5 -39 72 -140 77
-115 87 -126 105 -117 11 6 20 13 20 15 0 3 -29 47 -64 98 -36 51 -66 98 -68
104 -3 12 147 123 166 123 6 0 33 -34 60 -76 33 -50 54 -73 63 -69 8 3 17 5
19 5 13 0 -2 29 -47 96 -28 42 -47 79 -42 83 21 19 145 101 151 101 4 0 38
-45 75 -100 61 -90 70 -99 88 -89 11 6 19 13 17 17 -5 12 -168 252 -171 252
-1 0 -99 -66 -217 -146z"/>
<path d="M6390 9446 c0 -20 25 -38 167 -120 91 -53 174 -96 183 -96 23 0 34
30 18 46 -28 27 -326 194 -346 194 -16 0 -22 -6 -22 -24z"/>
<path d="M7410 9460 c-146 -18 -270 -78 -376 -184 -125 -126 -185 -268 -186
-441 -1 -144 42 -295 86 -303 32 -6 35 18 10 85 -46 123 -48 281 -4 408 59
171 228 322 410 366 80 19 221 15 300 -10 144 -45 272 -153 341 -286 52 -101
64 -154 63 -280 0 -90 -4 -121 -23 -170 -31 -82 -32 -109 -3 -113 18 -3 26 5
43 45 78 181 57 425 -52 593 -131 203 -372 317 -609 290z"/>
<path d="M8370 9375 c-136 -78 -165 -99 -165 -117 0 -14 7 -24 18 -26 17 -4
327 169 348 194 15 18 4 44 -18 44 -10 0 -92 -43 -183 -95z"/>
<path d="M2532 9257 l-41 -72 22 -12 c19 -10 24 -9 38 9 19 24 8 29 224 -94
203 -116 188 -104 170 -132 -14 -21 -14 -23 9 -34 24 -11 27 -8 65 61 l40 72
-22 12 c-19 10 -24 8 -35 -12 l-12 -24 -192 110 c-106 61 -195 113 -197 115
-2 2 1 15 7 28 9 20 7 25 -12 34 -21 9 -26 5 -64 -61z"/>
<path d="M12156 9199 c-125 -70 -233 -132 -238 -137 -13 -13 128 -272 148
-272 31 0 23 33 -30 128 -31 55 -56 104 -56 108 0 9 179 108 184 102 2 -1 22
-37 46 -78 50 -90 44 -83 69 -75 20 6 19 10 -24 89 -25 46 -45 86 -45 89 0 6
126 82 154 93 10 4 30 -23 73 -100 32 -58 63 -106 68 -106 6 0 16 4 24 9 10 7
-2 36 -58 137 -40 71 -75 132 -79 135 -4 3 -110 -52 -236 -122z"/>
<path d="M2380 8990 c-6 -12 -10 -23 -8 -24 7 -6 276 -164 331 -195 31 -18 57
-36 57 -39 0 -4 -120 -8 -268 -10 -260 -4 -267 -4 -284 -25 -10 -12 -18 -25
-18 -28 0 -3 106 -67 237 -144 221 -129 237 -137 250 -120 7 11 13 21 13 24 0
7 -40 32 -233 146 -82 48 -146 89 -143 92 3 4 122 8 263 10 244 4 259 6 276
25 9 11 17 24 17 28 0 8 -444 272 -467 278 -6 2 -17 -6 -23 -18z"/>
<path d="M12375 8770 c-137 -60 -251 -112 -252 -117 -2 -5 3 -17 10 -27 13
-17 25 -14 216 69 111 48 204 85 207 83 2 -3 -63 -101 -146 -218 -82 -117
-150 -217 -150 -221 0 -4 5 -19 11 -32 l11 -24 251 109 c138 59 252 110 254
112 2 2 -1 15 -8 28 l-11 25 -205 -89 c-113 -49 -207 -87 -210 -84 -3 2 63
100 146 217 83 117 151 220 151 229 0 9 -6 23 -12 32 -12 15 -40 5 -263 -92z"/>
<path d="M5944 8855 c-14 -10 -17 -18 -9 -31 8 -12 335 -152 642 -275 22 -8
22 -10 8 -41 -15 -33 -213 -520 -331 -812 -35 -88 -66 -161 -67 -163 -2 -1
-54 18 -117 43 -100 40 -115 44 -128 30 -8 -8 -12 -21 -9 -29 6 -17 262 -121
280 -114 8 3 40 70 72 149 32 78 61 147 65 151 4 5 70 -16 146 -46 94 -36 144
-51 155 -46 9 5 24 27 33 50 12 29 20 38 29 32 7 -5 33 -26 60 -47 45 -36 46
-39 32 -59 -26 -38 -19 -85 19 -123 19 -19 40 -34 48 -34 9 0 13 -14 13 -46 0
-40 5 -50 37 -80 29 -26 46 -34 76 -34 32 0 39 -4 49 -29 13 -36 51 -61 103
-68 22 -3 40 -9 40 -14 0 -4 12 -21 26 -38 33 -39 83 -50 132 -27 34 17 35 17
61 -7 36 -34 64 -47 103 -47 36 0 98 33 98 51 0 8 14 9 45 5 57 -9 117 16 162
67 23 26 41 37 60 37 43 0 106 41 128 83 14 25 27 37 42 37 32 0 81 47 94 90
10 33 9 44 -9 80 -14 29 -17 43 -9 46 7 2 52 17 100 33 l88 30 9 -25 c5 -13
17 -27 25 -30 9 -4 79 17 155 46 77 30 142 51 144 49 3 -2 30 -67 61 -144 31
-77 63 -146 70 -154 11 -12 33 -6 144 39 71 28 135 57 140 64 8 9 7 18 -3 32
-13 18 -18 17 -131 -28 -115 -46 -116 -46 -124 -25 -5 12 -85 209 -179 437
-213 522 -225 551 -220 555 1 1 150 63 330 136 180 73 329 138 332 145 3 7 -1
20 -8 30 -12 16 -38 7 -367 -127 l-354 -145 2 -29 c0 -17 3 -38 5 -48 2 -15
-21 -29 -122 -72 -69 -30 -132 -54 -142 -55 -9 0 -112 23 -230 51 -261 62
-305 64 -408 20 -75 -32 -75 -33 -150 -20 -41 6 -145 13 -231 14 l-155 3 -125
53 c-68 29 -126 54 -128 56 -3 2 1 20 8 39 11 30 11 38 0 49 -8 8 -165 75
-349 150 -184 75 -338 139 -341 141 -3 2 -15 -3 -25 -11z m802 -476 c65 -27
120 -52 123 -54 7 -8 -243 -585 -254 -585 -16 0 -218 80 -228 90 -7 6 204 549
230 593 6 10 -1 12 129 -44z m1749 -306 c64 -159 119 -293 122 -299 5 -14
-231 -109 -247 -99 -5 3 -10 11 -10 16 0 6 -52 134 -117 285 -69 165 -113 278
-107 284 11 10 214 98 230 99 6 1 64 -128 129 -286z m-656 226 c119 -28 217
-51 217 -52 11 -13 141 -334 138 -339 -2 -4 -30 -16 -62 -28 -46 -18 -72 -21
-137 -18 -130 7 -228 64 -332 191 -61 76 -104 107 -146 107 -53 0 -108 -42
-141 -107 -9 -18 -30 -49 -47 -68 -26 -30 -38 -35 -73 -35 -74 0 -79 20 -40
148 34 112 67 147 199 206 132 59 154 59 424 -5z m-591 3 c9 -6 5 -15 -14 -33
-36 -34 -52 -68 -85 -182 -25 -88 -27 -103 -15 -131 17 -40 31 -51 84 -66 82
-21 152 21 206 125 33 61 67 89 100 81 12 -3 59 -46 104 -95 45 -49 110 -108
145 -130 48 -32 89 -74 184 -193 127 -158 141 -188 107 -222 -8 -9 -28 -16
-44 -16 -24 0 -56 28 -201 183 -172 181 -210 210 -217 162 -1 -14 52 -77 177
-210 194 -207 196 -209 127 -242 -68 -32 -90 -18 -257 157 -84 88 -158 160
-165 160 -6 0 -17 -7 -24 -15 -17 -21 -8 -32 168 -213 81 -83 146 -156 143
-160 -25 -36 -101 -54 -140 -32 -10 5 -53 49 -96 97 -157 177 -175 194 -196
183 -10 -6 -19 -16 -19 -23 0 -7 56 -75 126 -152 l125 -140 -22 -18 c-12 -10
-32 -17 -44 -15 -12 2 -103 78 -201 170 -185 172 -416 370 -516 441 -32 23
-58 45 -58 50 0 4 46 116 102 248 l103 239 150 0 c82 0 156 -4 163 -8z m1027
-571 c5 -18 -4 -23 -93 -50 -55 -17 -104 -31 -110 -31 -6 0 -33 31 -60 69
l-50 68 76 6 c50 3 96 13 132 29 l55 25 22 -48 c11 -26 24 -56 28 -68z m-1369
-128 c31 -23 33 -28 20 -41 -18 -18 -61 -9 -70 14 -6 17 1 54 10 54 3 0 21
-12 40 -27z m174 -152 c0 -16 -58 -61 -78 -61 -23 0 -62 32 -62 51 0 14 19 50
38 71 13 16 17 15 58 -19 24 -19 44 -39 44 -42z m111 -142 c-28 -23 -40 -24
-69 -3 -27 18 -29 60 -5 86 16 18 18 18 57 -22 l41 -41 -24 -20z m132 -100
c-7 -7 -23 -9 -37 -5 -27 7 -43 43 -32 73 6 14 13 11 44 -20 27 -27 33 -40 25
-48z"/>
<path d="M4908 6325 c-232 -59 -374 -265 -338 -492 26 -160 135 -283 299 -333
80 -25 172 -25 289 -1 51 11 100 17 109 15 14 -4 26 13 56 80 49 111 51 116
41 116 -5 0 -22 -21 -39 -45 -81 -122 -218 -176 -355 -141 -132 34 -224 128
-265 270 -26 89 -17 242 17 318 53 115 147 178 278 186 132 8 212 -32 278
-138 20 -33 40 -59 45 -60 4 0 7 43 7 95 0 93 -1 95 -23 95 -13 0 -59 9 -102
20 -107 27 -225 33 -297 15z"/>
<path d="M7267 6317 c-3 -12 -8 -62 -12 -112 l-5 -90 19 53 c32 91 34 92 188
92 l133 0 0 -343 c0 -343 0 -344 -22 -365 -27 -24 -70 -42 -104 -42 -13 0 -24
-4 -24 -10 0 -6 75 -10 205 -10 130 0 205 4 205 10 0 6 -11 10 -25 10 -34 0
-95 26 -111 48 -10 13 -13 92 -14 360 l0 342 134 0 c134 0 135 0 156 -27 11
-14 25 -46 31 -70 20 -76 26 -46 13 65 -7 59 -13 108 -14 110 0 2 -10 -4 -22
-12 -33 -23 -672 -24 -705 -1 -19 14 -21 13 -26 -8z"/>
<path d="M5651 6008 c-152 -443 -158 -456 -195 -479 -17 -10 -39 -19 -48 -19
-10 0 -18 -4 -18 -10 0 -6 58 -10 155 -10 147 0 202 11 115 23 -49 6 -90 31
-90 55 0 22 80 263 93 280 6 8 44 12 123 12 107 0 114 -1 128 -22 17 -28 96
-250 96 -271 0 -24 -39 -46 -92 -53 -101 -14 -41 -24 137 -24 102 0 185 4 185
8 0 4 -19 14 -42 22 -32 11 -48 25 -65 55 -12 22 -78 196 -145 387 l-123 348
-55 0 -56 0 -103 -302z m189 52 c22 -61 40 -118 40 -126 0 -11 -20 -14 -95
-14 -52 0 -95 4 -95 8 0 8 71 220 85 256 10 24 15 16 65 -124z"/>
<path d="M6255 6300 c3 -5 19 -10 36 -10 16 0 38 -9 49 -20 20 -20 21 -30 18
-360 -3 -326 -4 -340 -24 -367 -14 -18 -32 -29 -52 -31 -18 -2 -32 -7 -32 -13
0 -5 65 -9 155 -9 150 0 199 11 114 25 -22 4 -51 17 -65 28 l-25 22 3 310 3
310 314 -348 c201 -223 320 -347 332 -347 18 0 19 14 19 369 0 203 3 377 7
386 3 10 29 28 57 41 l51 23 -160 -1 c-141 0 -154 -2 -113 -12 64 -15 77 -32
88 -107 12 -84 13 -489 1 -489 -5 0 -134 137 -286 305 l-276 305 -110 0 c-71
0 -108 -4 -104 -10z"/>
<path d="M8110 6300 c8 -5 25 -10 36 -10 12 0 33 -9 48 -21 l26 -20 0 -349 0
-350 -22 -14 c-13 -8 -49 -18 -80 -21 -133 -16 -39 -25 271 -25 l329 0 6 38
c22 150 16 215 -12 117 -6 -23 -25 -54 -42 -70 l-31 -30 -139 0 c-101 0 -143
4 -152 13 -9 9 -14 59 -16 172 l-3 160 123 0 c84 0 130 -4 141 -12 9 -7 23
-33 31 -58 14 -44 14 -41 15 90 0 91 -2 130 -9 120 -5 -8 -10 -23 -10 -32 0
-9 -12 -26 -27 -38 -24 -19 -37 -20 -142 -18 l-116 3 -3 158 -3 157 135 0 c74
0 142 -3 151 -6 20 -8 40 -48 49 -96 10 -56 30 -48 22 8 -3 26 -6 69 -6 95 l0
49 -292 0 c-193 0 -288 -4 -278 -10z"/>
<path d="M8820 6300 c8 -5 25 -10 36 -10 12 0 33 -9 48 -21 l26 -20 0 -349 0
-350 -22 -14 c-13 -8 -49 -18 -80 -21 -133 -16 -39 -25 271 -25 l329 0 6 38
c22 150 16 215 -12 117 -6 -23 -25 -54 -42 -70 l-31 -30 -139 0 c-101 0 -143
4 -152 13 -9 9 -14 59 -16 172 l-3 160 123 0 c84 0 130 -4 141 -12 9 -7 23
-33 31 -58 14 -44 14 -41 15 90 0 91 -2 130 -9 120 -5 -8 -10 -23 -10 -32 0
-9 -12 -26 -27 -38 -24 -19 -37 -20 -142 -18 l-116 3 -3 158 -3 157 135 0 c74
0 142 -3 151 -6 20 -8 40 -48 49 -96 10 -56 30 -48 22 8 -3 26 -6 69 -6 95 l0
49 -292 0 c-193 0 -288 -4 -278 -10z"/>
<path d="M9525 6300 c3 -5 16 -10 28 -10 13 0 33 -7 45 -16 l22 -15 0 -340 c0
-279 -3 -345 -15 -368 -15 -30 -33 -41 -66 -41 -10 0 -19 -4 -19 -10 0 -6 57
-10 150 -10 83 0 150 4 150 8 0 5 -23 14 -50 21 -82 21 -80 13 -80 359 0 192
4 302 10 300 5 -1 147 -156 316 -343 168 -187 315 -341 325 -343 18 -3 19 9
19 363 0 244 4 373 11 387 6 11 34 30 62 43 l52 24 -160 0 c-153 -1 -158 -1
-110 -14 85 -24 87 -33 83 -368 l-3 -237 -280 310 -280 310 -108 0 c-70 0
-106 -4 -102 -10z"/>
<path d="M5466 4810 c-12 -40 -18 -142 -8 -136 5 3 12 18 15 33 12 61 27 68
129 68 l93 0 3 -255 c2 -250 2 -255 -19 -272 -12 -10 -34 -18 -50 -18 -15 0
-31 -4 -34 -10 -4 -7 48 -10 150 -10 102 0 154 3 150 10 -3 6 -19 10 -34 10
-16 0 -38 8 -50 18 -21 17 -21 22 -19 272 l3 255 65 3 c36 2 80 0 98 -3 32 -6
44 -21 67 -90 12 -34 16 -2 8 69 l-8 67 -278 2 c-239 2 -278 0 -281 -13z"/>
<path d="M6540 4821 c-87 -27 -163 -91 -202 -170 -31 -63 -33 -216 -3 -276 44
-88 149 -159 255 -172 33 -4 89 1 152 12 l99 19 30 64 c16 36 27 67 24 70 -3
3 -6 3 -8 1 -50 -68 -76 -92 -123 -115 -47 -23 -63 -26 -119 -22 -146 12 -245
133 -245 298 0 168 92 270 245 270 87 0 139 -28 185 -100 18 -27 34 -50 36
-50 2 0 4 34 4 75 0 68 -2 75 -20 75 -10 0 -45 7 -77 15 -60 16 -190 19 -233
6z"/>
<path d="M8285 4788 c-3 -21 -8 -56 -11 -78 -8 -53 9 -51 23 3 15 54 40 67
133 67 109 0 100 23 100 -257 l0 -244 -25 -24 c-15 -16 -36 -25 -55 -25 -16 0
-30 -4 -30 -10 0 -6 57 -10 150 -10 93 0 150 4 150 10 0 6 -11 10 -25 10 -37
0 -75 21 -81 44 -2 12 -3 129 -2 261 l3 240 84 3 c100 3 125 -9 141 -69 16
-60 23 -41 15 43 l-7 73 -278 0 -279 0 -6 -37z"/>
<path d="M5186 4813 c-3 -4 8 -12 26 -17 l33 -11 0 -269 c0 -288 3 -271 -50
-293 -24 -9 73 -16 163 -11 41 2 51 6 37 11 -53 22 -50 5 -50 293 l0 269 33
11 c52 16 26 24 -83 24 -56 0 -105 -3 -109 -7z"/>
<path d="M7170 4802 c0 -18 -142 -439 -174 -515 -11 -27 -26 -42 -51 -52 -19
-9 -35 -17 -35 -20 0 -3 52 -5 115 -5 70 0 115 4 115 10 0 6 -13 10 -29 10
-16 0 -38 8 -49 18 -20 17 -20 17 16 122 l37 105 90 0 90 0 31 -85 c18 -47 35
-95 38 -106 9 -30 -18 -54 -60 -54 -19 0 -34 -4 -34 -10 0 -6 90 -10 250 -10
160 0 250 4 250 10 0 6 -9 10 -21 10 -23 0 -60 18 -71 34 -10 15 -10 446 0
446 4 0 108 -112 232 -250 130 -145 232 -250 243 -250 16 0 17 20 17 281 l0
280 40 17 c22 9 40 20 40 25 0 4 -52 7 -115 7 -70 0 -115 -4 -115 -10 0 -5 11
-10 24 -10 13 0 34 -9 47 -19 23 -19 24 -25 27 -188 6 -272 31 -272 -212 -4
l-208 231 -79 0 c-85 0 -102 -11 -41 -26 l37 -9 3 -256 c2 -233 1 -258 -15
-278 -22 -27 -81 -31 -116 -8 -28 18 -26 13 -141 337 l-83 235 -47 3 c-40 3
-46 0 -46 -16z m79 -190 l30 -82 -70 0 c-38 0 -69 4 -69 8 0 7 38 125 56 172
7 20 14 7 53 -98z"/>
<path d="M8900 4811 c0 -5 14 -12 30 -16 60 -13 60 -13 60 -285 0 -246 0 -249
-22 -264 -12 -9 -39 -16 -60 -16 -21 0 -38 -4 -38 -10 0 -6 88 -10 244 -10
l244 0 7 75 c8 86 2 107 -15 47 -18 -68 -46 -82 -161 -82 -120 0 -119 -2 -119
144 l0 106 93 0 c99 0 117 -7 117 -46 0 -13 5 -26 10 -29 6 -4 10 28 10 89 0
57 -4 96 -10 96 -5 0 -10 -9 -10 -20 0 -36 -40 -51 -126 -48 l-79 3 0 115 0
115 89 3 c105 3 129 -8 148 -70 l13 -43 3 64 c2 35 1 70 -2 77 -4 11 -48 14
-216 14 -121 0 -210 -4 -210 -9z"/>
<path d="M9420 4811 c0 -4 14 -11 32 -15 59 -12 58 -6 58 -282 0 -287 1 -284
-76 -284 -24 0 -44 -4 -44 -10 0 -6 88 -10 244 -10 l244 0 6 31 c3 17 6 52 5
78 l0 46 -19 -41 c-28 -63 -50 -74 -151 -74 -48 0 -94 3 -103 6 -13 5 -16 26
-16 125 l0 119 89 0 c95 0 100 -3 119 -55 9 -25 10 -12 10 70 0 89 -1 97 -12
72 -18 -42 -32 -47 -123 -47 l-83 0 0 120 0 120 84 0 c114 0 133 -8 147 -65
16 -63 27 -44 20 35 l-6 65 -212 3 c-121 1 -213 -1 -213 -7z"/>
<path d="M9940 4812 c0 -4 15 -12 33 -17 l32 -10 3 -258 c1 -166 -1 -265 -8
-277 -6 -12 -21 -20 -35 -20 -14 0 -25 -4 -25 -10 0 -6 45 -10 116 -10 74 0
113 4 109 10 -3 6 -17 10 -29 10 -13 0 -33 8 -45 18 -21 17 -22 23 -19 242 l3
224 228 -252 c126 -139 235 -252 243 -252 12 0 14 45 14 273 0 301 -1 296 62
312 55 14 14 25 -93 25 -66 0 -109 -4 -109 -10 0 -5 10 -10 23 -10 13 0 32 -6
43 -14 18 -13 19 -30 22 -221 l3 -207 -208 231 -208 230 -77 1 c-43 0 -78 -4
-78 -8z"/>
<path d="M4430 4802 c0 -5 17 -13 38 -18 l37 -9 3 -256 c2 -233 1 -258 -15
-278 -11 -12 -32 -22 -50 -23 -18 -1 -33 -6 -33 -10 0 -4 56 -8 125 -8 77 0
125 4 125 10 0 6 -9 10 -21 10 -23 0 -60 18 -71 34 -10 15 -10 446 0 446 4 0
108 -112 232 -250 130 -145 232 -250 243 -250 16 0 17 20 17 281 l0 280 40 17
c22 9 40 20 40 25 0 4 -52 7 -115 7 -70 0 -115 -4 -115 -10 0 -5 11 -10 24
-10 13 0 34 -9 47 -19 23 -19 24 -25 27 -188 6 -272 31 -272 -212 -4 l-208
231 -79 0 c-43 0 -79 -4 -79 -8z"/>
<path d="M4350 4220 c0 -5 7 -10 15 -10 8 0 15 5 15 10 0 6 -7 10 -15 10 -8 0
-15 -4 -15 -10z"/>
<path d="M10740 4065 l0 -25 519 0 c406 0 520 3 523 13 14 37 11 37 -523 37
l-519 0 0 -25z"/>
<path d="M3073 4004 c-3 -8 -1 -20 4 -25 5 -5 211 -8 524 -7 506 3 514 3 514
23 0 20 -8 20 -518 23 -463 2 -518 1 -524 -14z"/>
</g>
</svg>
